<svg width="75" height="75" viewBox="0 0 75 75" fill="none" xmlns="http://www.w3.org/2000/svg">
<path d="M65.1249 14.4063C63.5288 12.8095 61.6337 11.5427 59.5479 10.6785C57.4621 9.81422 55.2264 9.36938 52.9686 9.36938C50.7109 9.36938 48.4752 9.81422 46.3894 10.6785C44.3036 11.5427 42.4085 12.8095 40.8124 14.4063L37.4999 17.7188L34.1874 14.4063C30.9633 11.1823 26.5906 9.37106 22.0311 9.37106C17.4717 9.37106 13.0989 11.1823 9.87488 14.4063C6.65085 17.6304 4.8396 22.0031 4.8396 26.5626C4.8396 31.1221 6.65085 35.4948 9.87488 38.7188L37.4999 66.3438L65.1249 38.7188C66.7218 37.1227 67.9885 35.2276 68.8527 33.1418C69.717 31.056 70.1618 28.8204 70.1618 26.5626C70.1618 24.3048 69.717 22.0692 68.8527 19.9834C67.9885 17.8975 66.7218 16.0025 65.1249 14.4063Z" fill="#B3F362" stroke="#B3F362" stroke-width="1.6" stroke-linecap="round" stroke-linejoin="round"/>
</svg>
