<svg width="151" height="151" viewBox="0 0 151 151" fill="none" xmlns="http://www.w3.org/2000/svg">
<path d="M75.0625 0C86.9366 0 96.5625 9.54156 96.5625 21.3115C96.5625 22.0554 96.5233 22.7904 96.4482 23.5146C96.9032 22.9569 97.3912 22.4174 97.9111 21.8975C106.234 13.5748 119.727 13.5748 128.05 21.8975C136.372 30.2201 136.372 43.7135 128.05 52.0361C127.411 52.6753 126.74 53.2647 126.045 53.8057C126.951 53.6883 127.874 53.627 128.812 53.627C140.581 53.627 150.123 63.1686 150.123 74.9385C150.123 86.7084 140.581 96.2499 128.812 96.25C127.798 96.25 126.802 96.1778 125.826 96.041C126.632 96.6446 127.405 97.3114 128.138 98.0439C136.46 106.367 136.46 119.86 128.138 128.183C119.815 136.505 106.322 136.505 97.999 128.183C97.4079 127.591 96.8597 126.974 96.3525 126.334C96.4467 127.147 96.498 127.973 96.498 128.812C96.498 140.581 86.9564 150.123 75.1865 150.123C63.4166 150.123 53.8751 140.581 53.875 128.812C53.875 127.949 53.9267 127.098 54.0264 126.262C53.4856 126.959 52.8967 127.631 52.2568 128.271C43.9342 136.593 30.3806 136.533 21.9844 128.137C13.5885 119.74 13.5292 106.188 21.8516 97.8652C22.3504 97.3664 22.8681 96.8976 23.4023 96.459C22.7144 96.5266 22.017 96.5625 21.3115 96.5625C9.54156 96.5625 5.19034e-07 86.9366 0 75.0625C-5.19034e-07 63.1884 9.54156 53.5625 21.3115 53.5625C21.9247 53.5625 22.5318 53.5894 23.1318 53.6406C22.6629 53.2466 22.2057 52.8307 21.7646 52.3896C13.4421 44.067 13.5022 30.5134 21.8984 22.1172C30.2947 13.7213 43.8474 13.662 52.1699 21.9844C52.7144 22.5289 53.2226 23.0963 53.6953 23.6826C53.6084 22.9041 53.5625 22.113 53.5625 21.3115C53.5625 9.54156 63.1884 0 75.0625 0ZM58.2354 34.5762C58.9475 40.8565 56.8795 47.4145 52.0371 52.2568C47.3376 56.9563 41.0223 59.0426 34.9131 58.5107C39.6231 62.4544 42.623 68.4049 42.623 75.0625C42.623 81.8088 39.5414 87.8277 34.7227 91.7695C40.9176 91.1491 47.3534 93.2274 52.124 97.998C56.9975 102.872 59.0614 109.483 58.3086 115.8C62.2058 110.752 68.316 107.5 75.1865 107.5C81.9616 107.5 87.9969 110.663 91.9004 115.591C91.1734 109.344 93.2066 102.836 97.999 98.0439C102.922 93.1214 109.653 91.1103 116.054 92.0107C110.861 88.124 107.5 81.9238 107.5 74.9385C107.5 68.089 110.732 61.9945 115.753 58.0957C109.416 58.9225 102.779 56.9042 97.9111 52.0361C93.1718 47.2968 91.1317 40.8805 91.79 34.6973C87.8486 39.5305 81.8206 42.623 75.0625 42.623C68.2477 42.623 62.1744 39.4793 58.2354 34.5762Z" fill="black"/>
</svg>
