<svg width="120" height="120" viewBox="0 0 120 120" fill="none" xmlns="http://www.w3.org/2000/svg">
<path d="M73.1898 0C85.4074 5.1721e-05 97.3374 4.81346 106.264 13.7402C115.163 22.6392 119.964 34.5886 119.961 46.7734H119.958L119.959 47.8623C119.921 48.1418 119.921 48.3829 119.921 48.624C119.954 48.4257 119.958 48.2274 119.959 48.0078L119.998 72.9072C120.056 85.2566 115.287 97.3126 106.301 106.299C97.2921 115.308 85.1559 120.121 72.8148 119.998H47.1869C34.8047 120.08 22.7105 115.308 13.7015 106.299C4.69264 97.2898 -0.121021 85.1546 0.00231934 72.8135V47.1846C-0.116965 34.8023 4.65565 22.7083 13.6234 13.6992C22.5501 4.81354 34.4389 0 46.6566 0H73.1898ZM65.5795 119.381C65.7851 119.422 66.0319 119.463 66.3197 119.504C66.073 119.463 65.8262 119.422 65.5795 119.381ZM59.4906 118.353C58.956 118.394 58.5036 118.476 58.0101 118.6C58.5036 118.517 58.9971 118.476 59.4906 118.353ZM89.2328 92.2715C89.5619 91.5311 88.8628 90.8313 88.1224 91.1191C79.7305 93.9165 70.5571 94.3277 61.9183 92.1475C60.6431 91.8184 59.3264 91.8184 58.0511 92.1475C49.4124 94.3277 40.239 93.9576 31.847 91.1191C31.1477 90.8723 30.4486 91.5722 30.7777 92.2715C33.0814 97.4135 36.2902 102.103 40.3627 106.176C45.1345 110.989 50.9759 114.691 57.3109 116.995C59.0797 117.653 60.972 117.653 62.6996 116.995C69.0346 114.691 74.8348 110.989 79.6478 106.176C83.7203 102.103 86.9291 97.4547 89.2328 92.2715ZM62.6996 29.5371C60.9307 28.8789 59.0387 28.8789 57.3109 29.5371C50.976 31.8407 45.1756 35.5837 40.3627 40.3555C35.5496 45.1274 31.847 50.9695 29.5433 57.3047C28.8852 59.0735 28.8852 60.9657 29.5433 62.6934C31.8059 69.0696 35.5497 74.8697 40.3627 79.6416C45.1346 84.4547 50.9758 88.1572 57.3109 90.4609C59.0798 91.1191 60.9719 91.1191 62.6996 90.4609C69.0347 88.1572 74.8348 84.4547 79.6478 79.6416C84.4608 74.8697 88.1635 69.0285 90.4672 62.6934C91.043 60.9657 91.043 59.0735 90.4672 57.3047C88.1635 50.9695 84.4609 45.1685 79.6478 40.3555C74.876 35.5426 69.0345 31.8408 62.6996 29.5371ZM92.2357 30.8115C91.5776 30.4829 90.8376 31.1415 91.0844 31.8818C93.8816 40.2737 94.2517 49.4472 92.1127 58.0859C91.7836 59.3612 91.7836 60.6779 92.1127 61.9531C94.2929 70.5918 93.8816 79.7653 91.0844 88.1572C90.8375 88.8565 91.5364 89.5556 92.2357 89.2266C97.419 86.9229 102.067 83.7142 106.14 79.6416C110.953 74.8697 114.656 69.0285 116.959 62.6934C117.576 60.9656 117.576 59.0734 116.959 57.3457C114.656 51.0105 110.953 45.2096 106.14 40.3965C102.068 36.3241 97.4188 33.1151 92.2357 30.8115ZM28.8851 31.7988C29.1316 31.0996 28.432 30.4005 27.7328 30.7295C22.5497 33.0332 17.901 36.2419 13.8285 40.3145C9.01552 45.0864 5.31379 50.9286 3.01013 57.2637C2.35204 59.0325 2.35197 60.9247 3.01013 62.6523C5.31375 68.9873 9.01568 74.7876 13.8285 79.6006C17.9009 83.6731 22.5497 86.8819 27.7328 89.1855C28.391 89.5146 29.132 88.8567 28.8851 88.1162C26.0879 79.7243 25.7178 70.5509 27.8568 61.9121C28.1859 60.6369 28.1859 59.3202 27.8568 58.0449C25.7588 49.4061 26.0878 40.3143 28.8851 31.7988ZM119.999 73.2656L119.998 72.9072C119.998 72.876 120 72.8447 119.999 72.8135V73.2656ZM0.0443115 71.415C0.00324269 71.6617 0.00231934 71.9085 0.00231934 72.1963C0.0434294 71.9085 0.0443115 71.6617 0.0443115 71.415ZM119.921 71.373C119.921 71.661 119.921 71.9084 119.962 72.1553C119.962 71.9084 119.921 71.661 119.921 71.373ZM0.21228 68.5352C0.171198 68.7408 0.171367 69.0287 0.130249 69.2754C0.171371 68.9875 0.212251 68.7408 0.21228 68.5352ZM119.756 68.4941C119.756 68.7409 119.798 68.9877 119.839 69.2344C119.798 69.0288 119.797 68.7409 119.756 68.4941ZM0.911499 64.1328C0.829225 64.3385 0.788574 64.6272 0.747437 64.874C0.788574 64.6272 0.870362 64.3385 0.911499 64.1328ZM1.40564 61.9941C1.28226 62.4466 1.15881 62.9401 1.07654 63.4336C1.15881 62.9401 1.28226 62.4877 1.40564 61.9941ZM118.399 60.5127C118.44 61.0063 118.481 61.5005 118.646 61.9941C118.769 62.4877 118.852 62.9401 118.975 63.4336C118.893 62.9401 118.769 62.4877 118.646 61.9941C118.522 61.5005 118.44 61.0063 118.399 60.5127ZM0.994507 56.6055C1.07678 57.0989 1.20023 57.5514 1.32361 58.0449C1.44697 58.5384 1.52855 59.0319 1.5697 59.5254C1.52858 59.0319 1.48807 58.5384 1.32361 58.0449C1.20023 57.5514 1.11786 57.0989 0.994507 56.6055ZM118.893 56.6055C118.813 57.0843 118.694 57.5244 118.575 58.001C118.694 57.5606 118.813 57.0832 118.893 56.6055ZM119.222 55.165C119.181 55.4117 119.098 55.6996 119.057 55.9053C119.139 55.6996 119.181 55.4118 119.222 55.165ZM0.130249 50.8047C0.171369 51.0103 0.171193 51.2982 0.21228 51.5449C0.212252 51.2982 0.171372 51.0514 0.130249 50.8047ZM119.839 50.7637C119.798 51.0515 119.756 51.2983 119.756 51.5039C119.797 51.2982 119.798 51.0105 119.839 50.7637ZM0.00720215 47.8838C0.00720215 48.1306 0.0482178 48.3781 0.0482178 48.666C0.0482178 48.3781 0.0483392 48.1306 0.00720215 47.8838ZM119.959 48.0078V47.8623C119.96 47.8558 119.961 47.8493 119.962 47.8428C119.962 47.8993 119.96 47.9542 119.959 48.0078ZM62.6586 3.04395C60.8898 2.38581 58.9975 2.38588 57.2699 3.04395C50.9348 5.34764 45.1337 9.0502 40.3207 13.8633C36.2483 17.9357 33.0403 22.5845 30.7367 27.7676C30.4076 28.508 31.1066 29.2079 31.847 28.9199C40.239 26.1226 49.4124 25.7525 58.0511 27.8916C59.3264 28.2207 60.6431 28.2207 61.9183 27.8916C70.5571 25.7114 79.7305 26.1226 88.1224 28.9199C88.8217 29.1666 89.5208 28.4669 89.1918 27.7676C86.8881 22.5843 83.6793 17.9358 79.6068 13.8633C74.8349 9.05025 68.9936 5.34762 62.6586 3.04395Z" fill="black"/>
</svg>
