<svg width="74" height="74" viewBox="0 0 74 74" fill="none" xmlns="http://www.w3.org/2000/svg">
<path d="M47.8131 40.9413L74 41.3188L48.3064 36.2134L72.3823 25.8491L46.8465 31.6926L64.6476 12.3768L43.6825 28.1587L52.1314 3.23322L39.3642 26.2265L36.9992 0L34.6358 26.2265L21.867 3.23322L30.3175 28.1587L9.35236 12.3768L27.1535 31.6926L1.61768 25.8491L25.692 36.2134L0 41.3188L26.1869 40.9413L4.77998 56.1137L28.5504 45.058L15.1322 67.6722L32.3753 47.852L29.2645 74L36.9992 48.8407L44.7355 74L41.6247 47.852L58.8679 67.6722L45.4497 45.058L69.2184 56.1137L47.8131 40.9413Z" fill="#B3F362"/>
</svg>
